<svg xmlns="http://www.w3.org/2000/svg" viewBox="0 0 800 1000" preserveAspectRatio="xMidYMid slice">
  <defs>
    <linearGradient id="skyT" x1="0" y1="0" x2="0" y2="1">
      <stop offset="0%" stop-color="#E8C988"/>
      <stop offset="55%" stop-color="#D4A24C"/>
      <stop offset="100%" stop-color="#6B1E2E"/>
    </linearGradient>
  </defs>
  <rect width="800" height="1000" fill="url(#skyT)"/>
  <circle cx="600" cy="260" r="100" fill="#F7F2E9" opacity="0.2"/>
  <!-- gopuram tower, tiered -->
  <g fill="#1A2238">
    <rect x="330" y="560" width="140" height="260"/>
    <path d="M330 560 L345 510 L455 510 L470 560 Z"/>
    <rect x="345" y="470" width="110" height="40"/>
    <path d="M345 470 L358 430 L442 430 L455 470 Z"/>
    <rect x="358" y="395" width="84" height="35"/>
    <path d="M358 395 L368 360 L432 360 L442 395 Z"/>
    <rect x="372" y="330" width="56" height="30"/>
    <path d="M372 330 L380 300 L420 300 L428 330 Z"/>
    <circle cx="400" cy="285" r="9" fill="#D4A24C"/>
  </g>
  <!-- decorative tier dots -->
  <g fill="#D4A24C" opacity="0.8">
    <circle cx="350" cy="540" r="4"/>
    <circle cx="375" cy="540" r="4"/>
    <circle cx="400" cy="540" r="4"/>
    <circle cx="425" cy="540" r="4"/>
    <circle cx="450" cy="540" r="4"/>
  </g>
  <!-- side mantapams -->
  <g fill="#3A1018" opacity="0.85">
    <rect x="200" y="700" width="100" height="120"/>
    <path d="M200 700 Q250 670 300 700 Z"/>
    <rect x="500" y="700" width="100" height="120"/>
    <path d="M500 700 Q550 670 600 700 Z"/>
  </g>
  <!-- columns -->
  <g fill="#1A2238" opacity="0.7">
    <rect x="220" y="720" width="10" height="100"/>
    <rect x="270" y="720" width="10" height="100"/>
    <rect x="520" y="720" width="10" height="100"/>
    <rect x="570" y="720" width="10" height="100"/>
  </g>
  <!-- foreground courtyard -->
  <path d="M0 860 Q400 820 800 860 V1000 H0 Z" fill="#10142A"/>
</svg>
