<svg xmlns="http://www.w3.org/2000/svg" viewBox="0 0 800 1000" preserveAspectRatio="xMidYMid slice">
  <defs>
    <linearGradient id="skyL" x1="0" y1="0" x2="0" y2="1">
      <stop offset="0%" stop-color="#1A2238"/>
      <stop offset="60%" stop-color="#3A2A3E"/>
      <stop offset="100%" stop-color="#B97A4A"/>
    </linearGradient>
  </defs>
  <rect width="800" height="1000" fill="url(#skyL)"/>
  <g fill="#F7F2E9">
    <circle cx="120" cy="120" r="1.6" opacity="0.8"/>
    <circle cx="220" cy="200" r="1.2" opacity="0.6"/>
    <circle cx="600" cy="90" r="1.8" opacity="0.9"/>
    <circle cx="680" cy="180" r="1.2" opacity="0.5"/>
    <circle cx="380" cy="140" r="1.4" opacity="0.7"/>
    <circle cx="500" cy="240" r="1" opacity="0.5"/>
    <circle cx="90" cy="280" r="1.3" opacity="0.6"/>
    <circle cx="720" cy="300" r="1.5" opacity="0.7"/>
  </g>
  <path d="M0 480 L150 300 L300 450 L420 280 L560 460 L680 320 L800 460 V1000 H0 Z" fill="#6B1E2E" opacity="0.5"/>
  <g fill="#F7F2E9" opacity="0.55">
    <path d="M120 340 L150 300 L185 345 Z"/>
    <path d="M395 320 L420 280 L450 330 Z"/>
    <path d="M650 360 L680 320 L715 365 Z"/>
  </g>
  <path d="M0 620 L120 430 L260 600 L400 380 L540 610 L700 440 L800 600 V1000 H0 Z" fill="#10142A"/>
  <g fill="#F7F2E9" opacity="0.7">
    <path d="M90 470 L120 430 L155 475 Z"/>
    <path d="M370 420 L400 380 L435 425 Z"/>
    <path d="M665 480 L700 440 L735 485 Z"/>
  </g>
  <path d="M0 760 Q300 700 800 770 V1000 H0 Z" fill="#1A2238"/>
  <g fill="#10142A" opacity="0.92">
    <rect x="356" y="700" width="88" height="112"/>
    <path d="M356 700 Q400 660 444 700 Z"/>
    <rect x="375" y="640" width="50" height="42"/>
    <path d="M375 640 Q400 605 425 640 Z"/>
    <rect x="390" y="590" width="20" height="22"/>
    <path d="M390 590 Q400 570 410 590 Z"/>
    <rect x="392" y="540" width="16" height="28"/>
  </g>
  <g fill="#D4A24C" opacity="0.78">
    <path d="M395 510 L410 480 L425 510 Z"/>
    <path d="M372 528 L390 498 L408 528 Z"/>
  </g>
  <path d="M0 900 Q400 870 800 895 V1000 H0 Z" fill="#10142A" opacity="0.95"/>
</svg>
