<svg xmlns="http://www.w3.org/2000/svg" viewBox="0 0 800 1000" preserveAspectRatio="xMidYMid slice">
  <defs>
    <linearGradient id="skyR" x1="0" y1="0" x2="0" y2="1">
      <stop offset="0%" stop-color="#D4A24C"/>
      <stop offset="45%" stop-color="#B97A4A"/>
      <stop offset="100%" stop-color="#3A2A3E"/>
    </linearGradient>
    <linearGradient id="duneR" x1="0" y1="0" x2="0" y2="1">
      <stop offset="0%" stop-color="#6B1E2E"/>
      <stop offset="100%" stop-color="#3A1018"/>
    </linearGradient>
  </defs>
  <rect width="800" height="1000" fill="url(#skyR)"/>
  <circle cx="610" cy="250" r="120" fill="#F7F2E9" opacity="0.18"/>
  <path d="M0 620 Q220 560 400 610 T800 590 V1000 H0 Z" fill="#8C3A3E" opacity="0.58"/>
  <path d="M0 720 Q220 660 440 710 T800 690 V1000 H0 Z" fill="url(#duneR)"/>
  <g fill="#1A2238">
    <rect x="210" y="615" width="360" height="240"/>
    <rect x="240" y="545" width="60" height="90"/>
    <rect x="500" y="545" width="60" height="90"/>
    <path d="M240 545 Q270 500 300 545 Z"/>
    <path d="M500 545 Q530 500 560 545 Z"/>
    <rect x="310" y="495" width="180" height="140"/>
    <path d="M310 495 Q400 430 490 495 Z"/>
    <circle cx="400" cy="555" r="12" fill="#D4A24C"/>
    <rect x="265" y="700" width="48" height="150"/>
    <rect x="487" y="700" width="48" height="150"/>
    <path d="M265 700 Q288 670 313 700 Z"/>
    <path d="M487 700 Q510 670 535 700 Z"/>
    <g opacity="0.92">
      <rect x="150" y="675" width="16" height="70"/>
      <path d="M150 675 Q158 658 166 675 Z"/>
      <rect x="634" y="675" width="16" height="70"/>
      <path d="M634 675 Q642 658 650 675 Z"/>
    </g>
  </g>
  <path d="M0 860 Q300 810 800 850 V1000 H0 Z" fill="#1A2238" opacity="0.88"/>
  <g fill="#D4A24C" opacity="0.75">
    <path d="M120 820 Q150 785 180 820 L165 860 L135 860 Z"/>
    <path d="M620 810 Q650 775 680 810 L665 850 L635 850 Z"/>
  </g>
</svg>
