<svg xmlns="http://www.w3.org/2000/svg" viewBox="0 0 800 1000" preserveAspectRatio="xMidYMid slice">
  <defs>
    <linearGradient id="skyT" x1="0" y1="0" x2="0" y2="1">
      <stop offset="0%" stop-color="#E8C988"/>
      <stop offset="55%" stop-color="#D4A24C"/>
      <stop offset="100%" stop-color="#6B1E2E"/>
    </linearGradient>
  </defs>
  <rect width="800" height="1000" fill="url(#skyT)"/>
  <circle cx="600" cy="260" r="100" fill="#F7F2E9" opacity="0.2"/>
  <g fill="#1A2238">
    <rect x="290" y="560" width="220" height="280"/>
    <path d="M290 560 L306 500 L494 500 L510 560 Z"/>
    <rect x="314" y="470" width="172" height="44"/>
    <path d="M314 470 L330 420 L470 420 L486 470 Z"/>
    <rect x="332" y="390" width="136" height="38"/>
    <path d="M332 390 L346 350 L454 350 L468 390 Z"/>
    <rect x="352" y="320" width="96" height="34"/>
    <path d="M352 320 L366 282 L434 282 L448 320 Z"/>
    <circle cx="400" cy="280" r="10" fill="#D4A24C"/>
  </g>
  <g fill="#D4A24C" opacity="0.82">
    <circle cx="320" cy="540" r="4"/>
    <circle cx="350" cy="540" r="4"/>
    <circle cx="380" cy="540" r="4"/>
    <circle cx="410" cy="540" r="4"/>
    <circle cx="440" cy="540" r="4"/>
    <circle cx="470" cy="540" r="4"/>
  </g>
  <g fill="#3A1018" opacity="0.85">
    <rect x="180" y="690" width="110" height="140"/>
    <path d="M180 690 Q235 660 290 690 Z"/>
    <rect x="510" y="690" width="110" height="140"/>
    <path d="M510 690 Q565 660 620 690 Z"/>
  </g>
  <g fill="#1A2238" opacity="0.7">
    <rect x="205" y="710" width="10" height="104"/>
    <rect x="255" y="710" width="10" height="104"/>
    <rect x="535" y="710" width="10" height="104"/>
    <rect x="585" y="710" width="10" height="104"/>
  </g>
  <path d="M0 860 Q400 820 800 860 V1000 H0 Z" fill="#10142A"/>
  <g fill="#D4A24C" opacity="0.74">
    <path d="M120 790 Q150 760 180 790 L165 840 L135 840 Z"/>
    <path d="M645 790 Q675 760 705 790 L690 840 L660 840 Z"/>
  </g>
</svg>
