<svg xmlns="http://www.w3.org/2000/svg" viewBox="0 0 800 1000" preserveAspectRatio="xMidYMid slice">
  <defs>
    <linearGradient id="skyG" x1="0" y1="0" x2="0" y2="1">
      <stop offset="0%" stop-color="#1A2238"/>
      <stop offset="40%" stop-color="#3A4A72"/>
      <stop offset="75%" stop-color="#D4A24C"/>
      <stop offset="100%" stop-color="#6B1E2E"/>
    </linearGradient>
    <linearGradient id="seaG" x1="0" y1="0" x2="0" y2="1">
      <stop offset="0%" stop-color="#2A3A5A"/>
      <stop offset="100%" stop-color="#10142A"/>
    </linearGradient>
  </defs>
  <rect width="800" height="1000" fill="url(#skyG)"/>
  <circle cx="650" cy="180" r="55" fill="#F7F2E9" opacity="0.22"/>
  <rect x="0" y="580" width="800" height="420" fill="url(#seaG)"/>
  <path d="M350 580 L380 1000 H420 L450 580 Z" fill="#D4A24C" opacity="0.12"/>
  <g stroke="#F7F2E9" stroke-width="1.5" opacity="0.15" fill="none">
    <path d="M0 700 Q200 688 400 700 T800 696"/>
    <path d="M0 780 Q200 765 400 780 T800 774"/>
    <path d="M0 870 Q200 855 400 870 T800 864"/>
  </g>
  <path d="M0 590 Q400 560 800 590 V640 Q400 600 0 640 Z" fill="#D4A24C" opacity="0.35"/>
  <g fill="#10142A">
    <rect x="100" y="420" width="12" height="200"/>
    <path d="M106 420 Q50 390 55 355 Q90 380 106 420 Z"/>
    <path d="M106 420 Q160 375 168 340 Q128 368 106 420 Z"/>
    <path d="M106 420 Q55 365 68 330 Q96 360 106 420 Z"/>
  </g>
  <g fill="#10142A">
    <rect x="680" y="440" width="11" height="180"/>
    <path d="M685 440 Q630 412 636 378 Q668 398 685 440 Z"/>
    <path d="M685 440 Q738 400 744 368 Q708 390 685 440 Z"/>
  </g>
  <g fill="#1A2238">
    <rect x="320" y="430" width="160" height="180"/>
    <path d="M320 430 Q400 385 480 430 Z"/>
    <rect x="368" y="360" width="24" height="72"/>
    <path d="M368 360 Q380 332 392 360 Z"/>
    <rect x="395" y="345" width="8" height="24"/>
    <rect x="387" y="351" width="24" height="6"/>
    <rect x="340" y="550" width="20" height="60" fill="#D4A24C" opacity="0.4"/>
    <rect x="440" y="550" width="20" height="60" fill="#D4A24C" opacity="0.4"/>
  </g>
  <path d="M310 720 Q400 690 490 720" stroke="#F7F2E9" stroke-width="3" opacity="0.2" fill="none"/>
</svg>
