<svg xmlns="http://www.w3.org/2000/svg" viewBox="0 0 800 1000" preserveAspectRatio="xMidYMid slice">
  <defs>
    <linearGradient id="skyR" x1="0" y1="0" x2="0" y2="1">
      <stop offset="0%" stop-color="#D4A24C"/>
      <stop offset="45%" stop-color="#B97A4A"/>
      <stop offset="100%" stop-color="#3A2A3E"/>
    </linearGradient>
    <linearGradient id="duneR" x1="0" y1="0" x2="0" y2="1">
      <stop offset="0%" stop-color="#6B1E2E"/>
      <stop offset="100%" stop-color="#3A1018"/>
    </linearGradient>
  </defs>
  <rect width="800" height="1000" fill="url(#skyR)"/>
  <circle cx="600" cy="320" r="120" fill="#F7F2E9" opacity="0.18"/>
  <!-- distant dunes -->
  <path d="M0 620 Q200 540 400 600 T800 580 V1000 H0 Z" fill="#8C3A3E" opacity="0.55"/>
  <path d="M0 720 Q220 650 450 700 T800 680 V1000 H0 Z" fill="url(#duneR)"/>
  <!-- palace silhouette -->
  <g fill="#1A2238">
    <rect x="250" y="600" width="300" height="220" />
    <rect x="270" y="540" width="40" height="80" />
    <rect x="490" y="540" width="40" height="80" />
    <path d="M270 540 Q290 500 310 540 Z"/>
    <path d="M490 540 Q510 500 530 540 Z"/>
    <rect x="340" y="500" width="120" height="120" />
    <path d="M340 500 Q400 440 460 500 Z"/>
    <circle cx="400" cy="540" r="10" fill="#D4A24C"/>
    <rect x="300" y="680" width="50" height="140"/>
    <rect x="450" y="680" width="50" height="140"/>
    <path d="M300 680 Q325 650 350 680 Z"/>
    <path d="M450 680 Q475 650 500 680 Z"/>
    <!-- chhatris -->
    <g opacity="0.9">
      <rect x="180" y="660" width="14" height="60"/>
      <path d="M180 660 Q187 645 194 660 Z"/>
      <rect x="606" y="660" width="14" height="60"/>
      <path d="M606 660 Q613 645 620 660 Z"/>
    </g>
  </g>
  <!-- foreground texture line -->
  <path d="M0 850 Q300 800 800 840 V1000 H0 Z" fill="#1A2238" opacity="0.85"/>
</svg>
