<svg xmlns="http://www.w3.org/2000/svg" viewBox="0 0 800 1000" preserveAspectRatio="xMidYMid slice">
  <defs>
    <linearGradient id="skyL" x1="0" y1="0" x2="0" y2="1">
      <stop offset="0%" stop-color="#1A2238"/>
      <stop offset="60%" stop-color="#3A2A3E"/>
      <stop offset="100%" stop-color="#B97A4A"/>
    </linearGradient>
  </defs>
  <rect width="800" height="1000" fill="url(#skyL)"/>
  <!-- stars -->
  <g fill="#F7F2E9">
    <circle cx="120" cy="120" r="1.6" opacity="0.8"/>
    <circle cx="220" cy="200" r="1.2" opacity="0.6"/>
    <circle cx="600" cy="90" r="1.8" opacity="0.9"/>
    <circle cx="680" cy="180" r="1.2" opacity="0.5"/>
    <circle cx="380" cy="140" r="1.4" opacity="0.7"/>
    <circle cx="500" cy="240" r="1" opacity="0.5"/>
    <circle cx="90" cy="280" r="1.3" opacity="0.6"/>
    <circle cx="720" cy="300" r="1.5" opacity="0.7"/>
  </g>
  <!-- distant peaks -->
  <path d="M0 480 L150 300 L300 450 L420 280 L560 460 L680 320 L800 460 V1000 H0 Z" fill="#6B1E2E" opacity="0.5"/>
  <!-- snowcaps -->
  <g fill="#F7F2E9" opacity="0.55">
    <path d="M120 340 L150 300 L185 345 Z"/>
    <path d="M395 320 L420 280 L450 330 Z"/>
    <path d="M650 360 L680 320 L715 365 Z"/>
  </g>
  <!-- main range -->
  <path d="M0 620 L120 430 L260 600 L400 380 L540 610 L700 440 L800 600 V1000 H0 Z" fill="#10142A"/>
  <g fill="#F7F2E9" opacity="0.7">
    <path d="M90 470 L120 430 L155 475 Z"/>
    <path d="M370 420 L400 380 L435 425 Z"/>
    <path d="M665 480 L700 440 L735 485 Z"/>
  </g>
  <!-- foreground valley -->
  <path d="M0 760 Q300 700 800 770 V1000 H0 Z" fill="#1A2238"/>
  <!-- stupa silhouette -->
  <g fill="#10142A" opacity="0.9">
    <rect x="370" y="760" width="60" height="20"/>
    <path d="M380 760 L400 700 L420 760 Z"/>
    <rect x="396" y="685" width="8" height="20"/>
  </g>
</svg>
