<svg xmlns="http://www.w3.org/2000/svg" viewBox="0 0 800 1000" preserveAspectRatio="xMidYMid slice">
  <defs>
    <linearGradient id="skyK" x1="0" y1="0" x2="0" y2="1">
      <stop offset="0%" stop-color="#E8C988"/>
      <stop offset="50%" stop-color="#B97A4A"/>
      <stop offset="100%" stop-color="#1A2238"/>
    </linearGradient>
    <linearGradient id="waterK" x1="0" y1="0" x2="0" y2="1">
      <stop offset="0%" stop-color="#10142A"/>
      <stop offset="100%" stop-color="#1A2238"/>
    </linearGradient>
  </defs>
  <rect width="800" height="1000" fill="url(#skyK)"/>
  <circle cx="400" cy="430" r="90" fill="#F7F2E9" opacity="0.5"/>
  <rect y="560" width="800" height="440" fill="url(#waterK)"/>
  <!-- reflection -->
  <circle cx="400" cy="660" r="60" fill="#F7F2E9" opacity="0.12"/>
  <!-- palms left -->
  <g fill="#10142A">
    <rect x="70" y="500" width="10" height="180"/>
    <path d="M75 500 Q20 470 30 440 Q60 460 75 500 Z"/>
    <path d="M75 500 Q130 460 140 430 Q100 450 75 500 Z"/>
    <path d="M75 500 Q40 440 55 410 Q80 440 75 500 Z"/>
    <path d="M75 500 Q110 430 100 400 Q75 430 75 500 Z"/>
  </g>
  <g fill="#10142A">
    <rect x="700" y="470" width="9" height="160"/>
    <path d="M704 470 Q655 445 663 418 Q690 440 704 470 Z"/>
    <path d="M704 470 Q752 435 760 410 Q725 430 704 470 Z"/>
  </g>
  <!-- houseboat -->
  <g>
    <path d="M250 680 Q400 650 560 680 L540 720 Q400 705 270 720 Z" fill="#6B1E2E"/>
    <path d="M280 660 Q400 600 520 660 Z" fill="#3A1018"/>
    <rect x="300" y="630" width="200" height="34" fill="#D4A24C" opacity="0.85"/>
    <rect x="330" y="635" width="20" height="20" fill="#10142A"/>
    <rect x="370" y="635" width="20" height="20" fill="#10142A"/>
    <rect x="410" y="635" width="20" height="20" fill="#10142A"/>
    <rect x="450" y="635" width="20" height="20" fill="#10142A"/>
  </g>
  <!-- waterline ripples -->
  <g stroke="#F7F2E9" stroke-width="1.5" opacity="0.15" fill="none">
    <path d="M0 760 Q200 750 400 760 T800 758"/>
    <path d="M0 820 Q200 808 400 820 T800 815"/>
    <path d="M0 890 Q200 878 400 890 T800 885"/>
  </g>
</svg>
